<?xml version="1.0" encoding="utf-8"?>
<!-- Generator: Adobe Illustrator 26.2.1, SVG Export Plug-In . SVG Version: 6.00 Build 0)  -->
<svg version="1.1" id="Layer_1" xmlns="http://www.w3.org/2000/svg" xmlns:xlink="http://www.w3.org/1999/xlink" x="0px" y="0px"
	 viewBox="0 0 2000 351" style="enable-background:new 0 0 2000 351;" xml:space="preserve">
<style type="text/css">
	.st0{fill:#FFFFFF;}
	.st1{fill:none;stroke:#3C08D7;stroke-width:2;stroke-miterlimit:8;}
</style>
<rect class="st0" width="2000" height="240"/>
<path class="st1" d="M-1000,150c0,0,250-60,500-60S0,150,0,150s250,60,500,60s500-60,500-60s250-60,500-60s500,60,500,60
	s250,60,500,60s500-60,500-60"/>
<path class="st1" d="M-1000,90c0,0,250-60,500-60S0,90,0,90s250,60,500,60s500-60,500-60s250-60,500-60s500,60,500,60s250,60,500,60
	s500-60,500-60"/>
<path class="st1" d="M-1000,210c0,0,250-60,500-60S0,210,0,210s250,60,500,60s500-60,500-60s250-60,500-60s500,60,500,60
	s250,60,500,60s500-60,500-60"/>
<path class="st1" d="M-1000,270c0,0,250-60,500-60S0,270,0,270s250,60,500,60s500-60,500-60s250-60,500-60s500,60,500,60
	s250,60,500,60s500-60,500-60"/>
</svg>
